<?xml version="1.0" encoding="UTF-8"?>
<!DOCTYPE svg PUBLIC "-//W3C//DTD SVG 1.1//EN" "http://www.w3.org/Graphics/SVG/1.1/DTD/svg11.dtd">
<!-- Creator: CorelDRAW 2018 (64-Bit) -->
<svg xmlns="http://www.w3.org/2000/svg" xml:space="preserve" width="40mm" height="40mm" version="1.1" style="shape-rendering:geometricPrecision; text-rendering:geometricPrecision; image-rendering:optimizeQuality; fill-rule:evenodd; clip-rule:evenodd"
viewBox="0 0 4000 4000"
 xmlns:xlink="http://www.w3.org/1999/xlink">
 <defs>
  <style type="text/css">
   <![CDATA[
    .fil0 {fill:#BAD9F2}
    .fil5 {fill:#FEFEFE;fill-rule:nonzero}
    .fil3 {fill:#FDFEFD;fill-rule:nonzero}
    .fil1 {fill:#D8DADA;fill-rule:nonzero}
    .fil6 {fill:#D8AF15;fill-rule:nonzero}
    .fil2 {fill:#BAB8B6;fill-rule:nonzero}
    .fil4 {fill:#888987;fill-rule:nonzero}
    .fil13 {fill:#61B2E3;fill-rule:nonzero}
    .fil10 {fill:#615F5F;fill-rule:nonzero}
    .fil9 {fill:#4BA9DF;fill-rule:nonzero}
    .fil7 {fill:#0786C0;fill-rule:nonzero}
    .fil11 {fill:#0D789B;fill-rule:nonzero}
    .fil8 {fill:#2F279A;fill-rule:nonzero}
    .fil12 {fill:#333333;fill-rule:nonzero}
   ]]>
  </style>
     <clipPath id="id0">
      <path d="M557.82 176.88l2884.36 0 0 3646.23 -2884.36 0 0 -3646.23z"/>
     </clipPath>
 </defs>
 <g id="Layer_x0020_1">
  <metadata id="CorelCorpID_0Corel-Layer"/>
  <g id="_1890552921248">
   <rect class="fil0" x="-0" y="-0" width="4000" height="4000" rx="400.01" ry="375.45"/>
   <g>
    <g style="clip-path:url(#id0)">
     <image x="557.82" y="176.88" width="2884.36" height="3646.23" xlink:href="customer_icon_Images\customer_icon_ImgID1.png"/>
    </g>
   </g>
   <g>
    <polygon class="fil1" points="2872.06,730.94 1820.34,509.69 1422.97,1894.62 1481.18,2019.69 1508.37,1912.59 2592.39,2140.63 2574.15,2249.64 2677.83,2158.6 "/>
    <path class="fil2" d="M2376.51 1379.9c-32.43,26.31 -70.45,44.64 -113.94,54.8 -95.87,22.53 -198.92,-2.76 -273.15,-67.05 -33.68,-29.13 -58.74,-62.9 -75.06,-101.19 -79.73,-186.91 78.87,-402.7 85.49,-411.57 6.56,-8.78 17.92,-12.38 28.22,-9.85l8.51 3.77c11.89,7.99 14.78,23.64 6.39,35 -1.42,1.96 -146.58,201.87 -77.82,360.78 22.5,51.91 65.8,94.05 129.19,126.04 22.85,11.54 48.36,17.79 74,18.19 71.12,1.02 129.19,-16.2 173.42,-51.78 135.49,-108.73 100.94,-352.74 100.58,-355.18 -2.08,-13.93 7.81,-26.44 22.1,-27.99l9.32 0.62c10.28,2.52 18.67,10.96 20.31,21.74 1.68,10.92 40.73,275.24 -117.56,403.67z"/>
    <polygon class="fil3" points="2817.36,795.62 1844.35,590.92 1481.18,2019.69 2574.15,2249.64 "/>
    <path class="fil4" d="M2100.59 815.71c-5.84,31.15 -36.99,50.67 -69.55,43.84 -32.61,-6.88 -54.57,-37.58 -49.07,-68.76 5.54,-31.42 36.78,-51.39 69.69,-44.46 32.96,6.97 54.88,38.11 48.93,69.38z"/>
    <path class="fil4" d="M2544.79 909.15c-7.34,30.84 -39.63,50.13 -72.19,43.25 -32.61,-6.83 -53.37,-37.31 -46.45,-68.19 6.96,-31.1 39.35,-50.84 72.36,-43.87 32.92,6.92 53.63,37.84 46.28,68.81z"/>
    <polygon class="fil4" points="1820.34,509.69 1960.94,579.25 1844.35,590.92 2817.36,795.62 2728.18,738.87 2872.06,730.94 "/>
    <path class="fil5" d="M2402.33 1265.09c-32,25.64 -69.57,43.43 -112.47,53.28 -94.58,21.78 -196.5,-3.25 -270,-66.29 -33.28,-28.56 -58.17,-61.66 -74.4,-99.15 -79.33,-183.05 76.79,-393.87 83.31,-402.53 6.43,-8.55 17.61,-12.02 27.82,-9.53l8.48 3.72c11.76,7.81 14.63,23.17 6.39,34.26 -1.48,1.9 -144.29,197.2 -75.88,352.83 22.36,50.84 65.17,92.19 127.91,123.6 22.63,11.31 47.92,17.53 73.21,17.97 70.27,1.19 127.58,-15.52 171.19,-50.18 133.64,-106.03 98.94,-344.89 98.54,-347.25 -2.08,-13.65 7.68,-25.85 21.74,-27.32l9.27 0.63c10.21,2.47 18.41,10.72 20.09,21.34 1.7,10.64 40.88,269.37 -115.2,394.62z"/>
    <polygon class="fil6" points="1422.97,1894.62 1516.27,1881.49 1481.18,2019.69 "/>
    <polygon class="fil6" points="2677.83,2158.6 2603.48,2110.2 2574.15,2249.64 "/>
    <polygon class="fil1" points="1886.01,700.68 890.63,1105.81 1336.28,2476.03 1454.51,2547.1 1417.16,2443.11 2443.14,2025.46 2489.01,2126.03 2523.97,1992.59 "/>
    <path class="fil2" d="M1471.55 569.36c-35.89,-21.34 -76.22,-33.9 -120.67,-37.67 -98.09,-8.34 -196.41,31.64 -260.56,106.04 -29.01,33.71 -48.89,70.8 -59.49,111.04 -51.73,196.49 136.56,386.95 144.37,394.81 7.76,7.67 19.51,9.58 29.31,5.58l7.9 -4.97c10.65,-9.63 11.18,-25.51 1.24,-35.54 -1.68,-1.72 -174.35,-178.44 -129.36,-345.64 14.68,-54.66 51.37,-102.61 109.44,-143.48 20.94,-14.73 45.3,-24.61 70.59,-28.7 70.19,-11.41 130.16,-2.75 179.1,25.96 149.82,87.93 151.16,334.41 151.16,336.82 -0.05,14.09 11.53,25.06 25.9,24.52l9.15 -1.99c9.79,-4 16.85,-13.53 16.9,-24.45 0.09,-11.05 0.3,-278.21 -174.98,-382.33z"/>
    <polygon class="fil3" points="1876.91,784.88 955.99,1159.76 1454.51,2547.1 2489.01,2126.03 "/>
    <path class="fil4" d="M1294.13 1202.67c12.56,29.05 -2.34,62.68 -33.18,75.24 -30.8,12.55 -66.2,-0.58 -79.1,-29.55 -12.95,-29.1 1.72,-63.13 32.91,-75.82 31.19,-12.73 66.78,0.84 79.37,30.13z"/>
    <path class="fil4" d="M1714.54 1031.55c11.22,29.63 -4.79,63.66 -35.63,76.22 -30.83,12.55 -65.13,-1.03 -76.66,-30.52 -11.58,-29.69 4.21,-64.16 35.36,-76.89 31.23,-12.69 65.7,1.37 76.93,31.19z"/>
    <polygon class="fil4" points="890.63,1105.81 1046.04,1084.84 955.99,1159.76 1876.91,784.88 1771.28,787.77 1886.01,700.68 "/>
    <path class="fil1" d="M1513.79 679.2c-35.41,-20.71 -75.12,-32.87 -118.94,-36.37 -96.81,-7.81 -194.01,31.75 -257.59,104.83 -28.79,33.09 -48.58,69.47 -59.22,108.91 -51.87,192.64 133.22,378.48 140.93,386.12 7.64,7.53 19.17,9.35 28.89,5.41l7.85 -4.88c10.52,-9.5 11.14,-25.07 1.33,-34.88 -1.63,-1.68 -171.38,-174.08 -126.26,-338.06 14.69,-53.55 51.11,-100.66 108.6,-140.85 20.73,-14.51 44.81,-24.31 69.75,-28.4 69.34,-11.4 128.53,-3.19 176.7,24.71 147.64,85.53 147.96,326.89 147.96,329.28 -0.09,13.79 11.32,24.48 25.52,23.92l9.04 -1.96c9.67,-3.99 16.69,-13.36 16.81,-24.05 0.14,-10.81 1.3,-272.48 -171.37,-373.73z"/>
    <polygon class="fil6" points="1336.28,2476.03 1406.29,2412.9 1454.51,2547.1 "/>
    <polygon class="fil6" points="2523.97,1992.59 2435.29,1994.05 2489.01,2126.03 "/>
    <polygon class="fil7" points="2573.35,1044.68 1498.66,1044.68 1394.89,2481.79 1477.58,2592.18 1482.15,2481.79 2589.9,2481.79 2594.51,2592.18 2677.16,2481.79 "/>
    <path class="fil8" d="M2238.98 766.83c-25.2,-33.33 -57.81,-60.11 -97.51,-80.4 -87.76,-44.76 -193.89,-44.76 -281.33,0 -39.61,20.29 -72.01,47.07 -97.02,80.4 -122.01,162.5 -19.39,409.88 -15.09,420.08 4.26,10.08 14.42,16.24 25.02,16.24l9.24 -1.6c13.44,-4.92 19.92,-19.43 14.5,-32.47 -0.94,-2.26 -94.19,-230.97 10.51,-368.94 34.17,-45.03 86.24,-75.64 155.46,-91.61 24.93,-5.72 51.24,-5.72 76.21,0 69.31,15.97 121.56,46.58 156.13,91.61 105.59,137.97 13.83,366.68 12.95,368.94 -5.33,13.04 1.24,27.55 14.73,32.47l9.23 1.6c10.6,0 20.71,-6.16 24.89,-16.24 4.25,-10.2 105.15,-257.58 -17.92,-420.08z"/>
    <polygon class="fil9" points="2533.2,1119.26 1538.89,1119.26 1477.58,2592.18 2594.51,2592.18 "/>
    <path class="fil7" d="M1835.92 1286.51c0.67,31.68 -25.82,57.19 -59.09,57.19 -33.33,0 -61.15,-25.51 -62.17,-57.19 -1.05,-31.89 25.43,-57.84 59.1,-57.84 33.63,0 61.49,25.95 62.16,57.84z"/>
    <path class="fil7" d="M2289.81 1286.51c-0.84,31.68 -28.47,57.19 -61.75,57.19 -33.27,0 -59.93,-25.51 -59.49,-57.19 0.4,-31.89 28.08,-57.84 61.76,-57.84 33.66,0 60.29,25.95 59.48,57.84z"/>
    <polygon class="fil10" points="1498.66,1044.68 1650.52,1083.82 1538.89,1119.26 2533.2,1119.26 2434.22,1082.13 2573.35,1044.68 "/>
    <path class="fil8" d="M2236.66 884.48c-24.92,-32.52 -57.14,-58.73 -96.44,-78.57 -86.74,-43.7 -191.66,-43.7 -278.04,0 -39.17,19.84 -71.24,46.05 -95.92,78.57 -120.71,158.87 -19.34,400.79 -15.07,410.72 4.21,9.9 14.23,15.94 24.74,15.94l9.15 -1.6c13.26,-4.79 19.69,-18.99 14.32,-31.72 -0.93,-2.22 -93.07,-225.91 10.48,-360.77 33.8,-44.02 85.31,-73.92 153.72,-89.53 24.67,-5.6 50.66,-5.6 75.33,0 68.5,15.61 120.23,45.51 154.35,89.53 104.43,134.86 13.76,358.55 12.91,360.77 -5.28,12.73 1.24,26.93 14.55,31.72l9.13 1.6c10.48,0 20.5,-6.04 24.68,-15.94 4.12,-9.93 103.85,-251.85 -17.89,-410.72z"/>
    <polygon class="fil11" points="1394.89,2481.79 1483.48,2449.72 1477.58,2592.18 "/>
    <polygon class="fil11" points="2677.16,2481.79 2594.51,2449.72 2594.51,2592.18 "/>
    <path class="fil8" d="M2638.21 2161.43l-209.75 0 38.82 -216 225.24 0 -54.31 216zm-68.67 273.16l-190.06 0 31.62 -176.21 202.72 0 -44.28 176.21zm-56.89 226.39l-173.81 0 26.31 -146.49 184.33 0 -36.83 146.49zm-395.9 -499.55l15.7 -216 225.24 0 -31.23 216 -209.71 0zm170.23 273.16l-190.06 0 12.82 -176.21 202.71 0 -25.47 176.21zm-32.7 226.39l-173.78 0 10.6 -146.49 184.34 0 -21.16 146.49zm-239.57 -499.55l-209.67 0 -7.41 -216 225.24 0 -8.16 216zm-10.25 273.16l-190.11 0 -6.03 -176.21 202.75 0 -6.61 176.21zm-8.56 226.39l-173.77 0 -5.02 -146.49 184.34 0 -5.55 146.49zm-432.16 0l-20.67 -146.49 184.33 0 10.12 146.49 -173.78 0zm-56.79 -402.6l202.71 0 12.24 176.21 -190.06 0 -24.89 -176.21zm-44.14 -312.95l225.24 0 14.94 216 -209.75 0 -30.43 -216zm-157.45 715.55l-36.3 -146.49 184.34 0 25.78 146.49 -173.82 0zm-99.78 -402.6l202.7 0 31.06 176.21 -190.11 0 -43.65 -176.21zm-24.04 -96.95l-53.55 -216 225.23 0 38.03 216 -209.71 0zm1913.28 -738.67c-20.94,-22.71 -56.39,-23.83 -78.7,-2.44l-215.58 168.67c-6.88,6.58 -11.93,14.86 -14.69,24.01l-71.59 239.52c-9.76,-2.88 -20.06,-4.66 -30.89,-4.66l-1556.98 0c-71.03,0 -122.19,68.15 -102.44,136.34l176.7 645.73c23.08,84.51 99.87,143.08 187.41,143.08l1033.61 0c43.35,0.04 27.33,45.91 15.39,68.1 -17.22,31.8 -45.83,56.3 -82.7,60.64l-920.83 109.45c-49.69,5.86 -87.4,52.4 -87.4,107.81 0,59.89 43.79,108.43 97.83,108.43l1067.29 0c28.38,0 51.46,-23.03 51.46,-51.46 0,-28.45 -23.08,-51.47 -51.46,-51.47l-816.24 0c-24.61,0 -27.1,-36.07 -2.71,-39.44l719.12 -99.2c79.91,-11.01 139.09,-87.53 136.77,-176.7l-2.12 -81.86c29.63,-24.75 52.35,-58.08 63.04,-97.38l161.63 -590.9 115.87 -360.24c2.53,-7.98 6.92,-15.3 12.74,-21.34l194.57 -159.13c20.29,-20.99 20.59,-54.09 0.9,-75.56z"/>
    <path class="fil12" d="M1700.08 3355.12c0,74.66 -60.57,135.18 -135.18,135.18 -74.68,0 -135.19,-60.52 -135.19,-135.18 0,-74.67 60.51,-135.18 135.19,-135.18 74.61,0 135.18,60.51 135.18,135.18z"/>
    <path class="fil2" d="M1658.41 3355.12c0,51.64 -41.87,93.57 -93.51,93.57 -51.69,0 -93.58,-41.93 -93.58,-93.57 0,-51.69 41.89,-93.56 93.58,-93.56 51.64,0 93.51,41.87 93.51,93.56z"/>
    <path class="fil13" d="M1564.9 3156.45c-21.75,0 -39.45,17.74 -39.45,39.4l0 150.22c0,21.69 17.7,39.44 39.45,39.44 21.64,0 39.39,-17.75 39.39,-39.44l0 -150.22c0,-21.66 -17.75,-39.4 -39.39,-39.4z"/>
    <path class="fil12" d="M2467.9 3355.12c0,74.66 -60.52,135.18 -135.18,135.18 -74.63,0 -135.18,-60.52 -135.18,-135.18 0,-74.67 60.55,-135.18 135.18,-135.18 74.66,0 135.18,60.51 135.18,135.18z"/>
    <path class="fil2" d="M2426.28 3355.12c0,51.64 -41.87,93.57 -93.56,93.57 -51.65,0 -93.53,-41.93 -93.53,-93.57 0,-51.69 41.88,-93.56 93.53,-93.56 51.69,0 93.56,41.87 93.56,93.56z"/>
    <path class="fil13" d="M2332.72 3156.45c-21.66,0 -39.4,17.74 -39.4,39.4l0 150.22c0,21.69 17.74,39.44 39.4,39.44 21.73,0 39.44,-17.75 39.44,-39.44l0 -150.22c0,-21.66 -17.71,-39.4 -39.44,-39.4z"/>
   </g>
  </g>
 </g>
</svg>
