<?xml version="1.0" encoding="UTF-8"?>
<!DOCTYPE svg PUBLIC "-//W3C//DTD SVG 1.1//EN" "http://www.w3.org/Graphics/SVG/1.1/DTD/svg11.dtd">
<!-- Creator: CorelDRAW 2018 (64-Bit) -->
<svg xmlns="http://www.w3.org/2000/svg" xml:space="preserve" width="40mm" height="40mm" version="1.1" style="shape-rendering:geometricPrecision; text-rendering:geometricPrecision; image-rendering:optimizeQuality; fill-rule:evenodd; clip-rule:evenodd"
viewBox="0 0 4000 4000"
 xmlns:xlink="http://www.w3.org/1999/xlink">
 <defs>
  <style type="text/css">
   <![CDATA[
    .fil0 {fill:#BAD9F2}
    .fil12 {fill:#FEFEFE;fill-rule:nonzero}
    .fil14 {fill:#F4D7BE;fill-rule:nonzero}
    .fil11 {fill:#EABA8A;fill-rule:nonzero}
    .fil3 {fill:#EAF5FC;fill-rule:nonzero}
    .fil4 {fill:#D8DADA;fill-rule:nonzero}
    .fil5 {fill:#BAB8B6;fill-rule:nonzero}
    .fil10 {fill:#61B2E3;fill-rule:nonzero}
    .fil6 {fill:#61B2E3;fill-rule:nonzero}
    .fil2 {fill:#718484;fill-rule:nonzero}
    .fil1 {fill:#585654;fill-rule:nonzero}
    .fil9 {fill:#479CD6;fill-rule:nonzero}
    .fil8 {fill:#18557B;fill-rule:nonzero}
    .fil13 {fill:#1A1A1A;fill-rule:nonzero}
    .fil7 {fill:#2F279A;fill-rule:nonzero}
   ]]>
  </style>
     <clipPath id="id0">
      <path d="M-37.24 627.92l4107.92 0 0 2666.86 -4107.92 0 0 -2666.86z"/>
     </clipPath>
 </defs>
 <g id="Layer_x0020_1">
  <metadata id="CorelCorpID_0Corel-Layer"/>
  <g id="_2200437025376">
   <rect class="fil0" x="-70.68" y="-0" width="4000" height="4000" rx="400.01" ry="375.45"/>
   <g>
    <g style="clip-path:url(#id0)">
     <image x="-37.24" y="627.92" width="4107.92" height="2666.86" xlink:href="partners_icon_Images\partners_icon_ImgID1.png"/>
    </g>
   </g>
   <g>
    <path class="fil1" d="M3245.31 2946.29l-2947.6 0c-35.16,0 -30.12,-129.7 -18.83,-139.37l434.41 -375.66c5.51,-4.75 29.77,-8.7 53.79,-8.7l2008.83 0c23.92,0 48.17,3.95 53.83,8.7l434.42 375.66c11.25,9.67 16.32,139.37 -18.85,139.37z"/>
    <path class="fil2" d="M2750.45 2436.86l-1957.89 0c-23.48,0 -46.63,3.59 -51.95,8.42l-381.74 343.94c-9.73,8.83 8.88,16.08 41.68,16.08l2741.88 0c32.69,0 51.45,-7.25 41.72,-16.08l-381.86 -343.94c-5.19,-4.83 -28.46,-8.42 -51.84,-8.42z"/>
    <path class="fil1" d="M2775.91 2441.39l-2008.83 0c-24.02,0 -44.89,-19.57 -46.46,-43.64l-92.29 -1410.29c-1.98,-28.49 18.08,-51.83 44.37,-51.83l2197.64 0c26.26,0 46.21,23.34 44.35,51.83l-92.28 1410.29c-1.59,24.07 -22.58,43.64 -46.5,43.64z"/>
    <path class="fil3" d="M2820.82 1018.69l-2098.74 0c-25.11,0 -44.21,21.14 -42.67,47.09l80.94 1288.19c1.45,22.23 21.53,40.2 44.63,40.2l1933.05 0c23.1,0 43.17,-17.97 44.53,-40.2l80.89 -1288.19c1.72,-25.95 -17.55,-47.09 -42.63,-47.09z"/>
    <polygon class="fil4" points="850.53,1447.52 973.04,2334.27 2546.75,2334.27 2667.52,1447.52 "/>
    <path class="fil5" d="M1176.17 1135.93l-177.73 437.04 -1.41 58.24c-0.71,30.59 65.71,55.72 147.62,55.72 81.9,0 149.3,-25.13 149.74,-55.72l0.85 -58.24 108.98 -437.04 -228.05 0z"/>
    <path class="fil5" d="M1411.66 1135.93l-106.71 437.04 -0.83 58.24c-0.46,30.59 66.2,55.72 148.1,55.72 81.94,0 149.07,-25.13 149.21,-55.72l0.32 -58.24 37.95 -437.04 -228.04 0z"/>
    <path class="fil5" d="M1875.48 1135.93l-228.04 0 -35.61 437.04 -0.28 58.24c-0.13,30.59 66.76,55.72 148.66,55.72 81.92,0 148.82,-25.13 148.68,-55.72l-0.25 -58.24 -33.16 -437.04z"/>
    <path class="fil5" d="M2110.98 1135.93l-228.06 0 35.41 437.04 0.28 58.24c0.14,30.59 67.27,55.72 149.19,55.72 81.9,0 148.58,-25.13 148.14,-55.72l-0.8 -58.24 -104.16 -437.04z"/>
    <path class="fil5" d="M2348.08 1135.93l-228.01 0 106.9 437.04 0.83 58.24c0.44,30.59 67.82,55.72 149.72,55.72l0.02 0c81.9,0 148.33,-25.13 147.61,-55.72l-1.38 -58.24 -175.69 -437.04z"/>
    <path class="fil5" d="M2505.17 1429.6l28.34 143.23 1.36 58.29c0.58,24.19 42.48,44.93 100.49,52.59l34.62 -254.11 -164.81 0z"/>
    <path class="fil5" d="M848.04 1429.6l35.32 255.42c64.22,-6.01 112.4,-28.01 112.77,-53.9l1.35 -58.29 28.57 -143.23 -178.01 0z"/>
    <polygon class="fil6" points="1404.22,1135.93 1176.17,1135.93 995.48,1548.01 1293.46,1548.01 "/>
    <path class="fil6" d="M995.48 1548.01l-1.76 55.15c-0.97,29.03 65.62,52.83 147.92,52.83 82.31,0 150.12,-23.8 150.69,-52.83l1.13 -55.15 -297.98 0z"/>
    <polygon class="fil7" points="1639.7,1135.93 1411.66,1135.93 1303.17,1548.01 1601.12,1548.01 "/>
    <path class="fil7" d="M1303.17 1548.01l-1.06 55.15c-0.58,29.03 66.29,52.83 148.61,52.83 82.31,0 149.82,-23.8 150.03,-52.83l0.37 -55.15 -297.95 0z"/>
    <path class="fil6" d="M1611.26 1548.01l-0.36 55.15c-0.2,29.03 66.98,52.83 149.3,52.83 82.31,0 149.52,-23.8 149.34,-52.83l-0.34 -55.15 -297.94 0z"/>
    <polygon class="fil6" points="1875.48,1135.93 1647.44,1135.93 1611.26,1548.01 1909.2,1548.01 "/>
    <polygon class="fil7" points="2110.98,1135.93 1882.92,1135.93 1918.93,1548.01 2216.87,1548.01 "/>
    <path class="fil7" d="M1918.93 1548.01l0.34 55.15c0.2,29.03 67.68,52.83 149.99,52.83 82.3,0 149.2,-23.8 148.66,-52.83l-1.05 -55.15 -297.94 0z"/>
    <polygon class="fil6" points="2348.08,1135.93 2120.07,1135.93 2228.76,1548.01 2526.7,1548.01 "/>
    <path class="fil6" d="M2526.7 1548.01l-297.94 0 1.06 55.15c0.56,29.03 68.35,52.83 150.68,52.83 82.32,0 148.87,-23.8 147.97,-52.83l-1.77 -55.15z"/>
    <polygon class="fil7" points="2583.59,1135.93 2355.54,1135.93 2536.41,1548.01 2834.37,1548.01 "/>
    <path class="fil7" d="M2834.37 1548.01l-297.96 0 1.78 55.15c0.94,29.03 69.06,52.83 151.38,52.83 82.29,0 148.58,-23.8 147.26,-52.83l-2.46 -55.15z"/>
    <polygon class="fil7" points="1175.58,1135.93 947.52,1135.93 696.73,1548.01 994.71,1548.01 "/>
    <path class="fil7" d="M696.73 1548.01l-2.47 55.15c-1.3,29.03 64.99,52.83 147.27,52.83 82.33,0 150.44,-23.8 151.38,-52.83l1.8 -55.15 -297.98 0z"/>
    <polygon class="fil8" points="1491.59,1724.58 957.53,1724.58 983.42,1927.88 1028.44,2281.45 2042.57,2281.45 2049.39,2138.67 2069.2,1724.58 "/>
    <polygon class="fil9" points="986.28,1739.36 1010.01,1932.22 1505.69,2269.13 1836.06,2269.13 1086.82,1739.36 "/>
    <polygon class="fil10" points="1493.27,1739.36 1086.82,1739.36 1836.06,2269.13 2018.52,2269.13 2024.47,2132.8 "/>
    <polygon class="fil9" points="2041.62,1739.36 1493.27,1739.36 2024.47,2132.8 "/>
    <polygon class="fil10" points="1051.48,2269.13 1505.69,2269.13 1010.01,1932.22 "/>
    <polygon class="fil6" points="2490.6,2325.79 2081.14,2325.79 2114.16,1724.58 2566.47,1724.58 "/>
    <polygon class="fil10" points="2478.7,2015.77 2172.61,2015.77 2190.29,1752.79 2509.68,1752.79 "/>
    <polygon class="fil10" points="2153.93,2293.77 2277.97,2293.77 2159.84,2205.87 "/>
    <polygon class="fil10" points="2159.84,2205.87 2277.97,2293.77 2423.99,2293.77 2167.02,2098.84 "/>
    <polygon class="fil10" points="2474.09,2054.84 2169.98,2054.84 2167.02,2098.84 2423.99,2293.77 2445.97,2293.77 "/>
    <path class="fil8" d="M2172.26 2020.97c-1.25,18.46 -22.66,33.34 -47.87,33.34 -25.19,0 -44.83,-14.88 -43.86,-33.34 0.96,-18.59 22.4,-33.73 47.88,-33.73 25.47,0 45.09,15.14 43.85,33.73z"/>
    <polygon class="fil5" points="2621.74,2377.19 909.81,2377.19 903.48,2335.08 2628.08,2335.08 "/>
    <path class="fil11" d="M3334.98 2180.65c-0.26,4.27 -9.32,13.13 -11.69,16.41l-22.58 31.53c-22.94,32.13 -7.57,36.39 -30.51,68.33 -55.64,78.03 -123.56,147.26 -179.2,225.08l-61.69 86.14c-3.55,5.03 -16.8,30.34 -23.08,30.93l-16.3 -9.41c-3.64,-2.11 -15.42,-8.39 -29.89,-15.64 -24.19,-11.92 -56,-26.93 -71.81,-31.23 -11.38,-3.01 -230.73,-21.42 -253.8,-34.86 -27.74,-16.48 -53.63,-38.48 -80.11,-57.3l-110.43 -79.02c-8.19,-5.92 -17.52,-11.47 -25.26,-18.01 -23.13,-20.3 -40.64,-49.47 -36.16,-79.17 2.73,-18.5 16.31,-42.06 36.6,-47.48 16.18,-4.17 34.1,5.24 48.48,11.87 20.64,9.63 39.24,23.29 57.44,37.09 23.25,17.87 37.36,18.01 37.09,9.77 -0.09,-11.34 -24.37,-22.9 -31.9,-28.36l-508.72 -363.7c-14.42,-10.35 -30.73,-19.94 -44.13,-31.62 -5.06,-4.44 -7.83,-10.76 -9.27,-17.61l-0.9 -5.46 -0.09 -0.77c-0.41,-4.16 -0.67,-8.51 -0.58,-12.46 -0.13,-36.47 22.81,-68.9 57.21,-81.4l11.38 -3.67 0.67 -0.18c4.93,-1.17 9.68,-1.75 14.34,-1.48 5.51,0.37 10.84,1.98 15.82,5.29 8.37,5.64 16.13,11.6 24.41,17.43 30.87,22.13 354.33,256.76 373.82,267.32 15.23,8.38 25.08,-7.48 12.5,-18.63 -12.55,-11.2 -28.09,-20.17 -41.8,-29.84 -18.94,-13.62 -83.74,-57.39 -91.75,-69.71 -21.82,-34.01 8.19,-88.71 42.73,-101.61 22.41,-8.51 46.21,-2.42 65.1,11.24l53.68 38.35c13.21,9.5 26.56,21.6 40.95,29.26 13.61,7.13 19.53,-0.58 20.56,-13.66 0.99,-11.97 -47.86,-51.84 -64.64,-63.89 -20.35,-14.47 -36.57,-32.3 -39.26,-58.51 -3.67,-35.75 20.97,-66.62 54.25,-77.68 24.2,-8.07 41.46,1.97 60.14,15.36 18.68,13.35 86.15,68.59 98.06,53.67 5.42,-6.45 -16.3,-25.45 -22.49,-30.64 -26.03,-21.5 -31.44,-60.53 -11.73,-87.9 15.95,-22 43.99,-31.59 70.42,-28.63l-0.18 -0.09 1.88 0.23 1.3 0.23 0.54 -0.06 0.18 0.18c17.29,7.27 194.84,137.82 268.84,190.85l82.8 59.05c35.75,25.72 58.65,69.22 74.55,109.32 3.99,10.21 57.83,80.55 64.87,88.48 2.55,2.82 52.42,38.71 87.45,63.84 14.6,10.44 26.57,19.14 31.63,22.72 4.35,3.13 10.53,5.51 10.26,9.71z"/>
    <polygon class="fil12" points="3319.17,2111.88 2935.23,2648.74 3040.19,2723.78 3424.05,2186.89 "/>
    <polygon class="fil13" points="3762.97,2340.06 3459.26,2099.12 2978.32,2771.76 3289.24,2987.07 "/>
    <path class="fil14" d="M2100.85 1892.77c-15.19,29.38 -58.01,34.1 -95.25,10.53l-31 -19.85 -7.53 -5.29c-0.41,-4.16 -0.67,-8.51 -0.58,-12.46 -0.13,-36.47 22.81,-68.9 57.21,-81.4l11.38 -3.67 0.67 -0.18 24.78 15.86c37.23,23.7 55.28,67.11 40.32,96.46z"/>
   </g>
  </g>
 </g>
</svg>
