<?xml version="1.0" encoding="UTF-8"?>
<!DOCTYPE svg PUBLIC "-//W3C//DTD SVG 1.1//EN" "http://www.w3.org/Graphics/SVG/1.1/DTD/svg11.dtd">
<!-- Creator: CorelDRAW 2018 (64-Bit) -->
<svg xmlns="http://www.w3.org/2000/svg" xml:space="preserve" width="40mm" height="40mm" version="1.1" style="shape-rendering:geometricPrecision; text-rendering:geometricPrecision; image-rendering:optimizeQuality; fill-rule:evenodd; clip-rule:evenodd"
viewBox="0 0 4000 4000"
 xmlns:xlink="http://www.w3.org/1999/xlink">
 <defs>
  <style type="text/css">
   <![CDATA[
    .fil0 {fill:#BAD9F2}
    .fil1 {fill:#D8DADA;fill-rule:nonzero}
    .fil6 {fill:#B6DFEE;fill-rule:nonzero}
    .fil2 {fill:#BAB8B6;fill-rule:nonzero}
    .fil5 {fill:#A3D3E1;fill-rule:nonzero}
    .fil3 {fill:#61B2E3;fill-rule:nonzero}
    .fil4 {fill:#2F279A;fill-rule:nonzero}
   ]]>
  </style>
     <clipPath id="id0">
      <path d="M194.51 502.46l3610.98 0 0 2995.09 -3610.98 0 0 -2995.09z"/>
     </clipPath>
 </defs>
 <g id="Layer_x0020_1">
  <metadata id="CorelCorpID_0Corel-Layer"/>
  <g id="_1890423867280">
   <rect class="fil0" x="-0" y="-0" width="4000" height="4000" rx="400.01" ry="375.45"/>
   <g>
    <g style="clip-path:url(#id0)">
     <image x="194.51" y="502.46" width="3610.98" height="2995.09" xlink:href="seller_icon_Images\seller_icon_ImgID1.png"/>
    </g>
   </g>
   <g>
    <polygon class="fil1" points="776.51,3055.63 3206,3055.63 3206,1345.22 776.51,1345.22 "/>
    <path class="fil2" d="M1247.32 848.04l-292.84 710.77 -11.36 102c-6.06,54.35 81.89,99.34 195.56,99.34 113.62,0 209.65,-44.99 213.36,-99.34l6.97 -102 179.53 -710.77 -291.22 0z"/>
    <path class="fil2" d="M1548.04 848.04l-175.83 710.77 -6.83 102c-3.62,54.35 86.32,99.34 199.98,99.34 113.63,0 207.66,-44.99 208.93,-99.34l2.45 -102 62.53 -710.77 -291.23 0z"/>
    <path class="fil2" d="M2140.4 848.04l-291.23 0 -58.69 710.77 -2.26 102c-1.21,54.35 90.75,99.34 204.37,99.34 113.63,0 205.68,-44.99 204.55,-99.34l-2.13 -102 -54.61 -710.77z"/>
    <path class="fil2" d="M2441.12 848.04l-291.24 0 58.33 710.77 2.27 102c1.22,54.35 95.18,99.34 208.8,99.34 113.62,0 203.69,-44.99 200.12,-99.34l-6.66 -102 -171.62 -710.77z"/>
    <path class="fil2" d="M2743.91 848.04l-291.22 0 176.15 710.77 6.83 102c3.67,54.35 99.65,99.34 213.27,99.34 113.63,0 201.66,-44.99 195.65,-99.34l-11.22 -102 -289.46 -710.77z"/>
    <path class="fil2" d="M2986.22 1315.37l60.4 243.21 11.35 102.05c4.79,43 66.29,79.99 148.03,93.72l0 -438.98 -219.78 0z"/>
    <path class="fil2" d="M776.51 1315.37l0 441.34c90.16,-10.71 160.6,-50.1 165.34,-96.08l11.36 -102.05 60.63 -243.21 -237.33 0z"/>
    <polygon class="fil3" points="1538.54,848.08 1247.32,848.08 954.48,1515.67 1359.01,1515.67 "/>
    <path class="fil3" d="M954.48 1515.67l-11.36 95.81c-6.06,51.1 81.89,93.33 195.56,93.33 113.62,0 209.65,-42.23 213.36,-93.33l6.97 -95.81 -404.53 0z"/>
    <polygon class="fil4" points="1839.27,848.08 1548.04,848.08 1372.21,1515.67 1776.74,1515.67 "/>
    <path class="fil4" d="M1372.21 1515.67l-6.83 95.81c-3.62,51.1 86.32,93.33 199.98,93.33 113.63,0 207.66,-42.23 208.93,-93.33l2.45 -95.81 -404.53 0z"/>
    <path class="fil3" d="M1790.48 1515.67l-2.26 95.81c-1.21,51.1 90.75,93.33 204.37,93.33 113.63,0 205.68,-42.23 204.55,-93.33l-2.13 -95.81 -404.53 0z"/>
    <polygon class="fil3" points="2140.4,848.08 1849.17,848.08 1790.48,1515.67 2195.01,1515.67 "/>
    <polygon class="fil4" points="2441.12,848.08 2149.88,848.08 2208.21,1515.67 2612.74,1515.67 "/>
    <path class="fil4" d="M2208.21 1515.67l2.27 95.81c1.22,51.1 95.18,93.33 208.8,93.33 113.62,0 203.69,-42.23 200.12,-93.33l-6.66 -95.81 -404.53 0z"/>
    <polygon class="fil3" points="2743.91,848.08 2452.69,848.08 2628.84,1515.67 3033.37,1515.67 "/>
    <path class="fil3" d="M3033.37 1515.67l-404.53 0 6.83 95.81c3.67,51.1 99.65,93.33 213.27,93.33 113.63,0 201.66,-42.23 195.65,-93.33l-11.22 -95.81z"/>
    <polygon class="fil4" points="3044.64,848.08 2753.41,848.08 3046.57,1515.67 3451.1,1515.67 "/>
    <path class="fil4" d="M3451.1 1515.67l-404.53 0 11.4 95.81c6.06,51.1 104.04,93.33 217.66,93.33 113.62,0 192.03,-42.23 183.66,-93.33l-8.19 -95.81z"/>
    <polygon class="fil4" points="1246.56,848.08 955.34,848.08 548.86,1515.67 953.39,1515.67 "/>
    <path class="fil4" d="M548.86 1515.67l-8.14 95.81c-8.41,51.1 69.99,93.33 183.61,93.33 113.62,0 211.65,-42.23 217.66,-93.33l11.4 -95.81 -404.53 0z"/>
    <polygon class="fil4" points="1617.67,1828.28 872.41,1828.28 872.41,2939.11 2423.71,2939.11 2423.71,1828.28 "/>
    <polygon class="fil5" points="909.98,1855.18 909.98,2218.89 1603.29,2912.21 2107.61,2912.21 1050.64,1855.18 "/>
    <polygon class="fil6" points="1619.16,1855.18 1050.64,1855.18 2107.61,2912.21 2386.13,2912.21 2386.13,2622.19 "/>
    <polygon class="fil5" points="2386.13,1855.18 1619.16,1855.18 2386.13,2622.19 "/>
    <polygon class="fil6" points="909.98,2912.21 1603.29,2912.21 909.98,2218.89 "/>
    <polygon class="fil3" points="2486.46,3036.86 3117.64,3036.86 3117.64,1828.28 2486.46,1828.28 "/>
    <polygon class="fil5" points="2595.34,2383.69 3043.05,2383.69 3043.05,1879.91 2595.34,1879.91 "/>
    <polygon class="fil5" points="2595.34,2966.01 2785.46,2966.01 2595.34,2775.88 "/>
    <polygon class="fil6" points="2595.34,2775.88 2785.46,2966.01 3009.37,2966.01 2595.34,2552.02 "/>
    <polygon class="fil5" points="3043.05,2462.23 2595.34,2462.23 2595.34,2552.02 3009.37,2966.01 3043.05,2966.01 "/>
    <path class="fil4" d="M2595.34 2394.01c0,37.08 -30.07,67.13 -67.15,67.13 -37.06,0 -67.13,-30.05 -67.13,-67.13 0,-37.13 30.07,-67.2 67.13,-67.2 37.08,0 67.15,30.07 67.15,67.2z"/>
    <polygon class="fil2" points="668.95,3151.97 3331.74,3151.97 3331.74,3057.49 668.95,3057.49 "/>
   </g>
  </g>
 </g>
</svg>
