<?xml version="1.0" encoding="UTF-8"?>
<!DOCTYPE svg PUBLIC "-//W3C//DTD SVG 1.1//EN" "http://www.w3.org/Graphics/SVG/1.1/DTD/svg11.dtd">
<!-- Creator: CorelDRAW 2018 (64-Bit) -->
<svg xmlns="http://www.w3.org/2000/svg" xml:space="preserve" width="40mm" height="40mm" version="1.1" style="shape-rendering:geometricPrecision; text-rendering:geometricPrecision; image-rendering:optimizeQuality; fill-rule:evenodd; clip-rule:evenodd"
viewBox="0 0 4000 4000"
 xmlns:xlink="http://www.w3.org/1999/xlink">
 <defs>
  <style type="text/css">
   <![CDATA[
    .fil0 {fill:#BAD9F2}
    .fil5 {fill:#FEFEFE;fill-rule:nonzero}
    .fil6 {fill:#E9EAEB;fill-rule:nonzero}
    .fil7 {fill:#C3C3C2;fill-rule:nonzero}
    .fil8 {fill:#A8ABAE;fill-rule:nonzero}
    .fil1 {fill:#9A9B9A;fill-rule:nonzero}
    .fil2 {fill:#888987;fill-rule:nonzero}
    .fil9 {fill:#838686;fill-rule:nonzero}
    .fil3 {fill:#767677;fill-rule:nonzero}
    .fil10 {fill:#6F7377;fill-rule:nonzero}
    .fil4 {fill:#5F5F63;fill-rule:nonzero}
    .fil11 {fill:#5C6B6D;fill-rule:nonzero}
    .fil13 {fill:#2F279A;fill-rule:nonzero}
    .fil12 {fill:#333333;fill-rule:nonzero}
    .fil14 {fill:#61B2E3;fill-opacity:0.501961}
   ]]>
  </style>
     <clipPath id="id0">
      <path d="M432.8 -8.19l3589.59 0 0 3892.75 -3589.59 0 0 -3892.75z"/>
     </clipPath>
 </defs>
 <g id="Layer_x0020_1">
  <metadata id="CorelCorpID_0Corel-Layer"/>
  <g id="_1890552631520">
   <rect class="fil0" x="-22.4" y="8.19" width="4000" height="4000" rx="400.01" ry="375.45"/>
   <g>
    <g style="clip-path:url(#id0)">
     <image x="432.8" y="-8.19" width="3589.59" height="3892.75" xlink:href="supervisor_icon_Images\supervisor_icon_ImgID1.png"/>
    </g>
   </g>
   <g>
    <path class="fil1" d="M1073.11 668.37c-124.9,0 -226.13,101.19 -226.13,226.09l0 2349.76c0,124.97 101.23,226.16 226.13,226.16l859.17 0 0 -2802.01 -859.17 0z"/>
    <path class="fil2" d="M2816.1 668.37l-883.82 0 0 2802.01 883.82 0c124.9,0 226.18,-101.19 226.18,-226.16l0 -2349.76c0,-124.9 -101.28,-226.09 -226.18,-226.09z"/>
    <polygon class="fil3" points="1017.07,3307.91 1932.28,3307.91 1932.28,750.71 1017.07,750.71 "/>
    <polygon class="fil4" points="1932.28,3307.91 2872.16,3307.91 2872.16,750.71 1932.28,750.71 "/>
    <polygon class="fil5" points="1056.55,3260.79 1932.28,3260.79 1932.28,800.68 1056.55,800.68 "/>
    <polygon class="fil6" points="1932.28,3260.79 2832.65,3260.79 2832.65,800.68 1932.28,800.68 "/>
    <path class="fil7" d="M1613.66 629.4l0 72.74c0,51.82 41.99,93.76 93.78,93.76l224.84 0 0 -166.5 -318.62 0z"/>
    <path class="fil8" d="M1932.28 629.4l0 166.5 249.52 0c51.78,0 93.75,-41.94 93.75,-93.76l0 -72.74 -343.27 0z"/>
    <path class="fil1" d="M1531.28 702.14c-48.93,0 -88.61,39.62 -88.61,88.57l0 10.37c0,48.94 39.68,88.56 88.61,88.56l401 0 0 -187.5 -401 0z"/>
    <path class="fil9" d="M2357.94 702.14l-425.66 0 0 187.5 425.66 0c48.94,0 88.65,-39.62 88.65,-88.56l0 -10.37c0,-48.95 -39.71,-88.57 -88.65,-88.57z"/>
    <path class="fil2" d="M1313.68 1195.67l249.95 0 0 249.87 -249.95 0 0 -249.87zm-21.72 271.64l293.38 0 0 -293.42 -293.38 0 0 293.42z"/>
    <polygon class="fil2" points="1695.37,1338.36 1932.28,1338.36 1932.28,1289.53 1695.37,1289.53 "/>
    <polygon class="fil10" points="1932.28,1338.36 2597.27,1338.36 2597.27,1289.53 1932.28,1289.53 "/>
    <path class="fil2" d="M1313.68 1927.73l249.95 0 0 249.94 -249.95 0 0 -249.94zm-21.72 271.64l293.38 0 0 -293.34 -293.38 0 0 293.34z"/>
    <polygon class="fil2" points="1695.37,2070.5 1932.28,2070.5 1932.28,2021.61 1695.37,2021.61 "/>
    <polygon class="fil10" points="1932.28,2070.5 2597.27,2070.5 2597.27,2021.61 1932.28,2021.61 "/>
    <path class="fil2" d="M1313.68 2659.86l249.95 0 0 249.92 -249.95 0 0 -249.92zm-21.72 271.63l293.38 0 0 -293.33 -293.38 0 0 293.33z"/>
    <polygon class="fil2" points="1695.37,2802.63 1932.28,2802.63 1932.28,2753.73 1695.37,2753.73 "/>
    <polygon class="fil10" points="1932.28,2802.63 2597.27,2802.63 2597.27,2753.73 1932.28,2753.73 "/>
    <path class="fil2" d="M1890.74 514.56c0,-25.49 17.75,-46.69 41.54,-52.3l0 -54.99c-54.08,6.15 -96.23,51.58 -96.23,107.29l-128.61 0c-51.79,0 -93.78,42.01 -93.78,93.76l0 21.08 318.62 0 0 -62.53c-23.79,-5.62 -41.54,-26.82 -41.54,-52.31z"/>
    <path class="fil10" d="M2275.55 608.32c0,-51.75 -41.97,-93.76 -93.75,-93.76l-128.61 0c0,-59.98 -48.63,-108.57 -108.6,-108.57l-12.31 1.28 0 54.99 12.31 -1.53c29.77,0 53.89,24.08 53.89,53.83 0,29.76 -24.12,53.9 -53.89,53.9l-12.31 -1.59 0 62.53 343.27 0 0 -21.08z"/>
    <path class="fil11" d="M1782.1 2153.05c186.89,235.86 529.56,275.54 765.44,88.6 6.21,-4.92 11.72,-10.37 17.66,-15.5 58.56,-50.6 103.84,-111.09 135.28,-177.18 86.52,-181.73 69.19,-404.39 -64.22,-572.74 -132.5,-167.14 -343.11,-235.23 -538.56,-194.54 -71.6,14.92 -140.96,44.6 -203.87,89.37 -7.71,5.48 -15.58,10.54 -23.08,16.47 -235.87,186.86 -275.59,529.62 -88.65,765.52zm-5.29 -884.05c40.04,-31.72 82.58,-57.96 126.64,-79.54 -1.19,7.66 -1.95,15.35 -2.94,23.05 0.99,-7.7 1.75,-15.39 2.94,-23.05 70.96,-34.77 146.11,-56.12 222.21,-65.27 232.33,-27.87 473.14,61.26 629.1,258.11 157.24,198.39 188.43,455.86 105.67,676.81 -26.87,71.76 -65.75,139.56 -116.39,200.33 -16.27,19.54 -33.4,38.56 -52.06,56.49l201.23 253.84 39.19 -31.13c25.59,-20.25 60.66,-20.46 86.61,-3.32 6.38,4.2 12.35,9.12 17.32,15.41l516.6 651.99c25.22,31.89 19.81,78.59 -12.05,103.84l-183.73 145.54c-31.88,25.29 -78.6,19.87 -103.85,-11.98l-516.59 -651.98c-8.39,-10.6 -13.13,-22.84 -14.88,-35.35 -3.57,-25.23 5.63,-51.64 26.95,-68.51l39.2 -31.15 -201.14 -253.94c-297.66,192.81 -698.55,131.33 -923.35,-152.23 -238.68,-301.35 -187.99,-739.15 113.32,-977.96z"/>
    <path class="fil12" d="M3075.71 2486.43l516.6 652.03c25.24,31.85 19.82,78.6 -12.02,103.79l-183.74 145.56c-31.9,25.32 -78.63,19.9 -103.87,-11.94l-516.58 -652.03c-8.39,-10.61 -13.09,-22.83 -14.89,-35.35l297.21 -217.47c6.36,4.19 12.35,9.12 17.29,15.41z"/>
    <path class="fil13" d="M1702.91 2182.68c-238.72,-301.37 -188.02,-739.18 113.29,-977.97 40.04,-31.72 82.59,-57.97 126.66,-79.56 -9.16,60.33 -12.33,121.17 -9.66,181.64 -7.67,5.45 -15.54,10.51 -23.05,16.45 -235.9,186.88 -275.62,529.65 -88.63,765.52 186.84,235.88 529.53,275.57 765.4,88.63 6.23,-4.95 11.73,-10.4 17.66,-15.5 58.83,17.08 118.74,28.06 178.87,33.24 -16.3,19.55 -33.4,38.57 -52.07,56.5l201.19 253.87 39.22 -31.11c25.6,-20.31 60.65,-20.46 86.63,-3.37l-297.21 217.47c-3.56,-25.23 5.64,-51.64 26.94,-68.48l39.23 -31.16 -201.14 -253.94c-297.67,192.78 -698.57,131.31 -923.33,-152.23z"/>
    <path class="fil13" d="M2165.05 1059.93c232.31,-27.88 473.14,61.21 629.11,258.07 157.21,198.43 188.46,455.84 105.65,676.85 -26.88,71.75 -65.75,139.55 -116.36,200.28 -60.13,-5.18 -120.04,-16.16 -178.87,-33.24 58.57,-50.64 103.83,-111.1 135.31,-177.21 86.51,-181.74 69.19,-404.4 -64.26,-572.72 -132.47,-167.18 -343.07,-235.24 -538.54,-194.52 -71.59,14.87 -140.94,44.56 -203.89,89.35 -2.68,-60.48 0.5,-121.31 9.65,-181.65 70.96,-34.75 146.09,-56.06 222.2,-65.21z"/>
    <path class="fil14" d="M2307.47 1226.68c-298.47,-36.36 -569.69,174.17 -605.77,470.25 -36.08,296.09 176.65,565.59 475.13,601.96 298.47,36.37 569.7,-174.17 605.77,-470.25 36.08,-296.08 -176.65,-565.59 -475.13,-601.96z"/>
   </g>
  </g>
 </g>
</svg>
